<svg width="60" height="60" viewBox="0 0 60 60" fill="none" xmlns="http://www.w3.org/2000/svg">
<circle cx="30" cy="30" r="30" fill="#E8E8FF"/>
<path d="M21.2267 22.0747L29.8987 27.0294L38.5707 22.0747C38.7229 21.9829 38.8919 21.9224 39.0678 21.8969C39.2437 21.8714 39.423 21.8812 39.595 21.926C39.767 21.9707 39.9284 22.0494 40.0695 22.1574C40.2107 22.2654 40.3289 22.4005 40.4171 22.5549C40.5052 22.7092 40.5617 22.8796 40.5831 23.0561C40.6044 23.2325 40.5903 23.4115 40.5415 23.5824C40.4927 23.7533 40.4102 23.9128 40.2989 24.0514C40.1876 24.1899 40.0497 24.3049 39.8933 24.3894L29.8987 30.1014L19.904 24.3894C19.6059 24.2095 19.3899 23.9202 19.3023 23.5833C19.2147 23.2463 19.2623 22.8885 19.4351 22.5862C19.6078 22.2839 19.8919 22.0612 20.2267 21.9656C20.5615 21.87 20.9204 21.9092 21.2267 22.0747ZM21.2267 30.0747L29.8987 35.0294L38.5707 30.0747C38.7229 29.9829 38.8919 29.9224 39.0678 29.8969C39.2437 29.8714 39.423 29.8812 39.595 29.926C39.767 29.9707 39.9284 30.0494 40.0695 30.1574C40.2107 30.2654 40.3289 30.4005 40.4171 30.5549C40.5052 30.7092 40.5617 30.8796 40.5831 31.0561C40.6044 31.2325 40.5903 31.4115 40.5415 31.5824C40.4927 31.7533 40.4102 31.9128 40.2989 32.0514C40.1876 32.1899 40.0497 32.3049 39.8933 32.3894L29.8987 38.1014L19.904 32.3894C19.6059 32.2095 19.3899 31.9202 19.3023 31.5833C19.2147 31.2463 19.2623 30.8885 19.4351 30.5862C19.6078 30.2839 19.8919 30.0612 20.2267 29.9656C20.5615 29.87 20.9204 29.9092 21.2267 30.0747Z" fill="#6E50FF"/>
</svg>
