<svg width="112" height="112" viewBox="0 0 112 112" fill="none" xmlns="http://www.w3.org/2000/svg">
<path d="M77.5399 75.8883C78.4712 76.2874 79.4913 76.0657 80.2452 75.4005C80.9104 74.8239 84.059 71.9414 85.2564 71.2318C86.7642 70.3448 87.9172 55.2223 87.9172 55.2667C88.0059 54.3797 87.6955 53.4927 87.0747 52.8719C80.999 46.7076 80.6885 45.9093 73.4599 45.0224C71.4642 44.7563 70.134 44.845 69.8679 45.2884C68.7592 47.0623 73.7703 50.2997 77.7173 50.2997C79.2251 50.2997 83.8816 55.2223 83.4381 56.331C83.1276 57.0849 83.2607 61.9188 83.2163 67.2405L81.2207 68.2605C80.112 68.837 78.7373 69.857 78.1608 70.6109C77.1408 71.897 77.0521 71.897 75.3226 70.877C73.6817 69.9014 70.8434 69.9457 70.8434 70.9657C70.8434 71.8527 74.3469 74.6465 76.653 75.5779L77.5399 75.8883Z" fill="#FFC947"/>
<path d="M98.1618 38.1924C98.2061 36.8176 97.5852 35.4872 96.5208 34.6446C94.5252 33.0924 92.3522 32.915 91.2879 34.1568C87.9175 38.2367 74.3471 36.7733 60.7324 30.8307C51.3751 26.7507 40.5543 24.9325 31.2413 25.8638C11.0188 27.8594 13.1031 28.3472 15.0544 77.8835L17.2274 78.9922C19.3561 80.1009 19.5334 80.1009 25.5646 78.7705C35.1881 76.6418 50.8872 76.8192 60.0228 79.0809C68.2271 81.1209 69.9124 80.7661 66.542 77.5731C60.3333 71.7192 35.5872 68.3488 25.5646 72.0296C23.5247 72.7835 21.6179 73.3601 21.3074 73.3601C20.2431 73.3601 22.2387 60.0114 21.2187 32.3829C21.263 32.3829 42.195 26.4846 57.761 34.4229C66.1871 38.7246 76.4758 41.5185 84.1923 41.5628H91.687C91.687 77.6174 91.9975 81.387 90.7114 81.387C90.1349 81.387 86.6314 80.9878 82.9062 80.5C75.6776 79.5687 74.6574 79.7461 76.1209 81.8305C77.54 83.8261 86.4541 85.9991 92.0419 86.2652C97.1862 86.5313 96.5652 85.7774 96.7869 82.6287C97.0087 78.7705 96.787 81.8305 98.1618 38.1924Z" fill="#FFC947"/>
<path d="M30.4872 41.6958C31.862 41.341 34.2125 39.3454 34.6117 38.1924C34.7891 37.6158 36.4299 37.6602 41.4855 38.2367C53.9916 39.7002 48.2263 34.5115 45.8315 33.8463C43.0376 33.048 38.6916 33.3585 33.7247 34.1124C32.7934 34.2454 31.6847 34.955 31.2856 35.7089C30.8865 36.4628 28.8464 37.7045 27.4273 39.168C23.569 43.0262 23.1698 62.3174 26.895 62.894C29.955 63.3374 30.9751 63.7366 32.5272 65.2C34.4342 66.9296 34.6558 66.7522 47.2949 66.7522C49.0245 66.7522 49.9558 62.4948 39.0906 62.0514C34.6115 61.874 33.6359 61.6079 32.0394 60.2775C31.0194 59.4349 29.9107 58.7253 29.6003 58.7253C28.2255 58.7253 29.1124 42.0062 30.4872 41.6958Z" fill="#FFC947"/>
<path d="M56.9182 65.5994C57.406 64.9785 57.7608 62.5838 57.7608 62.362C57.7608 62.1403 59.0913 62.229 60.5548 61.8298C65.9652 60.3664 65.8322 53.8029 60.3331 50.6986C58.8252 49.856 53.3261 49.5456 54.08 46.1752C54.6122 43.6917 56.4747 44.5343 58.4704 45.5099C59.8451 46.1308 61.0425 46.8404 62.2399 47.4612C64.3686 48.5699 64.3242 45.7317 62.9051 44.5343C62.0182 43.7804 60.7322 43.0265 59.4461 42.4499C59.18 42.3169 59.712 41.0308 59.2685 40.0995C58.3372 38.1926 55.6766 37.35 55.6766 38.9908C55.6766 39.2126 55.2773 40.9865 55.2773 40.9865C55.2329 40.9865 50.5322 38.8134 48.7583 44.0465C47.8713 46.663 48.98 50.4769 52.3061 51.4969C54.9669 52.3395 59.8009 53.1821 59.4461 55.9316C58.9583 59.7455 52.4834 57.129 52.439 57.129C47.8269 55.976 44.6783 57.4838 50.1331 59.9229C51.0644 60.3664 53.1487 60.8985 53.5921 61.2977C54.0356 61.6968 53.5477 64.2246 53.5477 64.6681C53.6364 66.6194 55.8539 67.0629 56.9182 65.5994Z" fill="#FFC947"/>
</svg>
