<svg class="recharts-surface" width="450" height="280" viewBox="0 0 450 280" version="1.1" xmlns="http://www.w3.org/2000/svg"><defs><clipPath id="recharts1-clip"><rect x="80" y="0" height="230" width="370"></rect></clipPath></defs><g class="recharts-cartesian-grid"><g class="recharts-cartesian-grid-horizontal"><line stroke-dasharray="5" stroke="#ccc" fill="none" x="80" y="0" width="370" height="230" offset="[object Object]" x1="80" y1="230" x2="450" y2="230"></line><line stroke-dasharray="5" stroke="#ccc" fill="none" x="80" y="0" width="370" height="230" offset="[object Object]" x1="80" y1="172.5" x2="450" y2="172.5"></line><line stroke-dasharray="5" stroke="#ccc" fill="none" x="80" y="0" width="370" height="230" offset="[object Object]" x1="80" y1="115" x2="450" y2="115"></line><line stroke-dasharray="5" stroke="#ccc" fill="none" x="80" y="0" width="370" height="230" offset="[object Object]" x1="80" y1="57.5" x2="450" y2="57.5"></line><line stroke-dasharray="5" stroke="#ccc" fill="none" x="80" y="0" width="370" height="230" offset="[object Object]" x1="80" y1="0" x2="450" y2="0"></line></g><g class="recharts-cartesian-grid-vertical"><line stroke-dasharray="5" stroke="#ccc" fill="none" x="80" y="0" width="370" height="230" offset="[object Object]" x1="80" y1="0" x2="80" y2="230"></line><line stroke-dasharray="5" stroke="#ccc" fill="none" x="80" y="0" width="370" height="230" offset="[object Object]" x1="172.5" y1="0" x2="172.5" y2="230"></line><line stroke-dasharray="5" stroke="#ccc" fill="none" x="80" y="0" width="370" height="230" offset="[object Object]" x1="265" y1="0" x2="265" y2="230"></line><line stroke-dasharray="5" stroke="#ccc" fill="none" x="80" y="0" width="370" height="230" offset="[object Object]" x1="357.5" y1="0" x2="357.5" y2="230"></line><line stroke-dasharray="5" stroke="#ccc" fill="none" x="80" y="0" width="370" height="230" offset="[object Object]" x1="450" y1="0" x2="450" y2="230"></line></g></g><g class="recharts-layer recharts-cartesian-axis recharts-xAxis xAxis"><line orientation="bottom" width="370" height="30" type="category" x="80" y="230" class="recharts-cartesian-axis-line" stroke="#666" fill="none" x1="80" y1="230" x2="450" y2="230"></line><g class="recharts-cartesian-axis-ticks"><g class="recharts-layer recharts-cartesian-axis-tick"><line orientation="bottom" width="370" height="30" type="category" x="80" y="230" class="recharts-cartesian-axis-tick-line" stroke="#666" fill="none" x1="80" y1="236" x2="80" y2="230"></line><text orientation="bottom" width="370" height="30" type="category" x="80" y="238" stroke="none" fill="#666" class="recharts-text recharts-cartesian-axis-tick-value" text-anchor="middle"><tspan x="80" dy="0.71em">1</tspan></text></g><g class="recharts-layer recharts-cartesian-axis-tick"><line orientation="bottom" width="370" height="30" type="category" x="80" y="230" class="recharts-cartesian-axis-tick-line" stroke="#666" fill="none" x1="172.5" y1="236" x2="172.5" y2="230"></line><text orientation="bottom" width="370" height="30" type="category" x="172.5" y="238" stroke="none" fill="#666" class="recharts-text recharts-cartesian-axis-tick-value" text-anchor="middle"><tspan x="172.5" dy="0.71em">2</tspan></text></g><g class="recharts-layer recharts-cartesian-axis-tick"><line orientation="bottom" width="370" height="30" type="category" x="80" y="230" class="recharts-cartesian-axis-tick-line" stroke="#666" fill="none" x1="265" y1="236" x2="265" y2="230"></line><text orientation="bottom" width="370" height="30" type="category" x="265" y="238" stroke="none" fill="#666" class="recharts-text recharts-cartesian-axis-tick-value" text-anchor="middle"><tspan x="265" dy="0.71em">3</tspan></text></g><g class="recharts-layer recharts-cartesian-axis-tick"><line orientation="bottom" width="370" height="30" type="category" x="80" y="230" class="recharts-cartesian-axis-tick-line" stroke="#666" fill="none" x1="357.5" y1="236" x2="357.5" y2="230"></line><text orientation="bottom" width="370" height="30" type="category" x="357.5" y="238" stroke="none" fill="#666" class="recharts-text recharts-cartesian-axis-tick-value" text-anchor="middle"><tspan x="357.5" dy="0.71em">4</tspan></text></g><g class="recharts-layer recharts-cartesian-axis-tick"><line orientation="bottom" width="370" height="30" type="category" x="80" y="230" class="recharts-cartesian-axis-tick-line" stroke="#666" fill="none" x1="450" y1="236" x2="450" y2="230"></line><text orientation="bottom" width="370" height="30" type="category" x="445.1328125" y="238" stroke="none" fill="#666" class="recharts-text recharts-cartesian-axis-tick-value" text-anchor="middle"><tspan x="445.1328125" dy="0.71em">5</tspan></text></g></g><text offset="5" x="265" y="265" class="recharts-text recharts-label" text-anchor="middle"><tspan x="265" dy="0.71em">Year</tspan></text></g><g class="recharts-layer recharts-cartesian-axis recharts-yAxis yAxis"><line orientation="left" width="60" height="230" type="number" x="20" y="0" class="recharts-cartesian-axis-line" stroke="#666" fill="none" x1="80" y1="0" x2="80" y2="230"></line><g class="recharts-cartesian-axis-ticks"><g class="recharts-layer recharts-cartesian-axis-tick"><line orientation="left" width="60" height="230" type="number" x="20" y="0" class="recharts-cartesian-axis-tick-line" stroke="#666" fill="none" x1="74" y1="230" x2="80" y2="230"></line><text orientation="left" width="60" height="230" type="number" x="72" y="230" stroke="none" fill="#666" class="recharts-text recharts-cartesian-axis-tick-value" text-anchor="end"><tspan x="72" dy="0.355em">0</tspan></text></g><g class="recharts-layer recharts-cartesian-axis-tick"><line orientation="left" width="60" height="230" type="number" x="20" y="0" class="recharts-cartesian-axis-tick-line" stroke="#666" fill="none" x1="74" y1="172.5" x2="80" y2="172.5"></line><text orientation="left" width="60" height="230" type="number" x="72" y="172.5" stroke="none" fill="#666" class="recharts-text recharts-cartesian-axis-tick-value" text-anchor="end"><tspan x="72" dy="0.355em">350</tspan></text></g><g class="recharts-layer recharts-cartesian-axis-tick"><line orientation="left" width="60" height="230" type="number" x="20" y="0" class="recharts-cartesian-axis-tick-line" stroke="#666" fill="none" x1="74" y1="115" x2="80" y2="115"></line><text orientation="left" width="60" height="230" type="number" x="72" y="115" stroke="none" fill="#666" class="recharts-text recharts-cartesian-axis-tick-value" text-anchor="end"><tspan x="72" dy="0.355em">700</tspan></text></g><g class="recharts-layer recharts-cartesian-axis-tick"><line orientation="left" width="60" height="230" type="number" x="20" y="0" class="recharts-cartesian-axis-tick-line" stroke="#666" fill="none" x1="74" y1="57.5" x2="80" y2="57.5"></line><text orientation="left" width="60" height="230" type="number" x="72" y="57.5" stroke="none" fill="#666" class="recharts-text recharts-cartesian-axis-tick-value" text-anchor="end"><tspan x="72" dy="0.355em">1050</tspan></text></g><g class="recharts-layer recharts-cartesian-axis-tick"><line orientation="left" width="60" height="230" type="number" x="20" y="0" class="recharts-cartesian-axis-tick-line" stroke="#666" fill="none" x1="74" y1="0" x2="80" y2="0"></line><text orientation="left" width="60" height="230" type="number" x="72" y="10" stroke="none" fill="#666" class="recharts-text recharts-cartesian-axis-tick-value" text-anchor="end"><tspan x="72" dy="0.355em">1400</tspan></text></g></g><text offset="5" x="15" y="115" transform="rotate(-90, 15, 115)" class="recharts-text recharts-label" text-anchor="end"><tspan x="15" dy="0.355em">Your Return</tspan></text></g><g class="recharts-layer recharts-line"><path stroke="#6E50FF" fill="none" stroke-width="1" points="[object Object],[object Object],[object Object],[object Object],[object Object]" width="370" height="230" class="recharts-curve recharts-line-curve" type="monotone" d="M80,57.5C110.83333333333333,54.62500000000001,141.66666666666666,51.750000000000014,172.5,48.79285714285715C203.33333333333334,45.83571428571429,234.16666666666666,42.85119047619047,265,39.757142857142846C295.8333333333333,36.663095238095224,326.6666666666667,33.459523809523816,357.5,30.228571428571435C388.3333333333333,26.997619047619054,419.1666666666667,23.684523809523807,450,20.37142857142856"></path></g></svg>