<svg width="112" height="112" viewBox="0 0 112 112" fill="none" xmlns="http://www.w3.org/2000/svg">
<path fill-rule="evenodd" clip-rule="evenodd" d="M44.1924 28.2827C44.2736 32.4218 49.1027 39.0769 52.3896 37.8189C53.8099 37.2508 53.8098 36.6421 52.2678 32.2189C48.575 21.7088 44.1113 24.9551 44.1924 28.2827ZM70.9751 37.6566C69.8388 40.8624 73.7751 41.4305 76.4939 38.4681C79.2534 35.4247 82.2157 30.8798 83.7983 27.7957C85.5432 24.8334 82.1345 23.3319 79.2939 25.7667C75.9258 28.6073 71.7461 35.4247 70.9751 37.6566ZM15.0563 35.1812C12.5403 36.1957 20.9809 46.6653 24.3896 46.7464C28.3664 46.8276 28.691 45.9348 25.9316 42.2421C21.5895 36.3986 17.9374 34.0044 15.0563 35.1812ZM53.2012 50.2363C51.6998 51.7377 49.9141 53.8073 49.2243 54.7812C43.2996 63.6276 43.2185 63.7088 40.4996 61.6392C34.2098 56.932 23.862 53.7261 25.891 61.9232C27.1489 66.874 30.8823 75.9232 31.8563 78.9261C34.3722 86.8392 35.7113 88.1377 40.1751 87.0827C51.2534 84.4044 67.0795 84.3232 78.4013 86.8798C81.2013 87.529 81.3636 87.2044 81.6476 81.5638C82.2158 70.1609 88.7895 59.0421 88.7895 55.4711C88.7895 51.4537 81.2013 54.4566 70.894 62.5319L69.8389 63.3435L68.3374 62.329C65.2533 60.2595 63.7112 61.8827 65.4562 65.3319C66.8765 68.1319 68.0533 69.0653 71.178 67.5638C72.9635 66.7117 75.4389 65.0884 78.9287 62.6131C80.3084 61.6392 81.4447 60.9493 81.4447 61.0711C81.4447 61.6392 78.9693 72.2711 78.9693 72.3116L72.8011 71.7841C67.891 71.5812 67.3229 74.1783 72.3953 74.9493C72.9229 75.0305 78.1171 75.6798 78.1171 75.6798C78.1171 75.6798 77.9143 77.9522 77.3461 79.2508C76.7374 80.5493 75.7229 80.874 74.0592 80.3059C61.0331 76.0044 39.8099 81.2392 39.7693 81.2392C38.9983 81.3609 31.9375 62.7348 32.5056 62.1667C32.5867 62.0855 33.4388 62.6131 34.4127 63.3435C45.4098 71.3377 46.5461 71.0943 53.8099 59.4479L57.2186 53.9696L58.5576 55.958C62.4533 61.7609 67.9722 59.2044 64.8881 54.9436C63.833 53.5233 62.0882 51.4131 59.2882 48.1261C58.0302 46.6247 56.1635 47.2739 53.2012 50.2363ZM105.995 49.6276C104.535 50.4797 96.9056 57.7841 96.0128 59.1638C94.1056 62.2073 98.0824 62.8971 101.694 60.1377C105.914 56.9319 111.88 51.4131 111.88 50.6827C111.92 49.2218 107.984 48.4913 105.995 49.6276ZM5.47944 69.0653C11.4041 70.5261 14.8127 70.8914 16.1518 70.1609C18.3431 68.9841 17.3287 68.1319 12.1345 66.8334C11.6475 66.7116 6.85907 65.3725 3.57211 65.3725C1.21849 65.3725 -4.01622 66.6711 5.47944 69.0653Z" fill="#6E50FF"/>
</svg>
