<svg width="112" height="112" viewBox="0 0 112 112" fill="none" xmlns="http://www.w3.org/2000/svg">
<path fill-rule="evenodd" clip-rule="evenodd" d="M31.403 19.5028C26.228 20.3487 29.7113 23.7822 33.9906 24.3793C37.5734 24.8769 44.4401 24.8769 59.2188 24.8271C77.232 24.7774 84.9448 24.9764 86.0893 25.474C88.9256 26.7677 90.1697 31.7438 90.9659 45.2288C91.2645 50.0057 91.8614 57.1712 92.3093 61.152C93.7026 73.9403 92.4089 75.1843 76.0379 75.8312C69.7184 76.08 61.5079 76.5776 57.8257 76.9259C40.6087 78.568 29.9102 78.2693 23.939 75.8809C18.963 73.8905 19.2119 72.2982 19.0626 68.9643C18.7143 62.4955 18.8635 49.309 19.5104 37.3168C20.0578 27.2653 20.7046 25.2749 23.939 23.7821C25.9294 22.8865 25.2328 21.8415 22.7448 21.941C19.0128 22.1401 16.1268 23.3841 15.5794 29.206C14.8828 36.3714 10.454 75.7317 18.4156 79.0656C23.6404 81.255 32.7465 83.3947 36.3292 83.3947C38.8172 83.3947 38.7179 86.1813 36.2299 86.9277C30.5074 88.5698 34.5379 92.5505 42.1014 92.8491C57.4275 93.3467 79.8196 92.1027 80.0187 90.6597C80.2177 89.2167 76.9833 85.9325 75.2915 85.9325C74.7441 85.9325 74.3957 85.2855 74.3957 84.3401C74.3957 82.9966 74.3957 81.1057 75.9383 81.1057C82.5564 81.1057 86.0893 80.8071 88.0797 80.3593C97.7829 78.2693 98.181 71.7011 98.0815 67.8696C97.7332 52.1952 94.7973 37.2174 94.7973 33.6845C94.7475 27.564 91.1649 21.543 83.5019 20.4482C80.5163 19.5526 36.5283 18.6569 31.403 19.5028ZM57.3779 49.956C56.7807 49.3091 51.0086 42.89 49.4163 41.248C47.4259 39.2078 45.3856 39.8546 41.1062 43.7856C38.9168 45.8258 35.4834 48.8613 33.4432 50.6029C26.3773 56.5741 25.8299 59.2611 31.6518 59.2611C33.6422 59.2611 34.5878 58.5644 40.5093 52.4936C48.1723 44.6316 47.4756 44.6813 54.1435 51.1502C58.6219 55.4793 58.0745 55.5291 65.3395 49.8565C71.6092 44.0345 75.1919 40.1532 79.7201 35.625C84.1985 31.1466 77.3315 29.1065 73.6991 32.1916C69.4197 35.7246 57.4276 49.9062 57.3779 49.956ZM73.5001 47.6173C72.6044 49.9062 73.0523 65.1825 74.0475 66.128C76.4857 68.5662 77.9786 63.3413 77.8293 52.9912C77.7298 47.2688 74.9431 43.8355 73.5001 47.6173ZM44.6891 53.8373C43.1465 57.9176 44.4402 69.0638 47.575 68.5165C50.7099 67.9691 48.5703 55.6783 47.8736 53.887C47.4258 52.5932 45.1867 52.5435 44.6891 53.8373ZM64.9412 54.9817C64.0953 56.0266 63.2495 63.7394 63.7969 65.8294C64.7423 69.5614 68.6733 67.9194 68.6733 63.7893C68.6733 56.8726 66.8819 52.6429 64.9412 54.9817ZM36.6278 60.3061C35.8814 61.0525 36.1799 66.6255 37.0756 67.8198C38.6679 70.0092 40.0612 68.616 40.0612 64.7845C40.0115 60.8037 38.3197 58.5645 36.6278 60.3061ZM53.795 60.3061C52.5013 61.5998 53.3969 66.9241 54.9892 67.6705C57.527 68.8149 58.373 65.6801 56.8305 60.7041C56.5817 59.8084 54.5414 59.5597 53.795 60.3061ZM66.6333 81.9517C68.6237 82.4991 67.8772 84.2904 68.0763 85.9325L45.087 86.3305C45.087 86.1812 45.4853 82.2502 45.4853 82.499C47.0776 82.4492 61.6573 81.8522 63.6477 81.7029C64.4438 81.6034 65.8371 81.7527 66.6333 81.9517Z" fill="#00B67A"/>
</svg>
